<mxfile host="app.diagrams.net" modified="2021-01-03T02:03:45.847Z" agent="5.0 (Windows NT 10.0; Win64; x64) AppleWebKit/537.36 (KHTML, like Gecko) Chrome/87.0.4280.88 Safari/537.36" etag="8UFt9gbgBJ5OWHTA5s1t" version="14.1.4" type="github">
  <diagram id="rG_6Ms0IW74KIfkZE-O7" name="Page-1">
    <mxGraphModel dx="782" dy="481" grid="1" gridSize="10" guides="1" tooltips="1" connect="1" arrows="1" fold="1" page="1" pageScale="1" pageWidth="827" pageHeight="1169" math="0" shadow="0">
      <root>
        <mxCell id="0" />
        <mxCell id="1" parent="0" />
      </root>
    </mxGraphModel>
  </diagram>
</mxfile>
